<svg xmlns="http://www.w3.org/2000/svg" version="1.1" xmlns:xlink="http://www.w3.org/1999/xlink" xmlns:svgjs="http://svgjs.dev/svgjs" width="2000" height="707" viewBox="0 0 2000 707"><g transform="matrix(1,0,0,1,-1.2119792678057593,0.8865448364440454)"><svg viewBox="0 0 396 140" data-background-color="#ffffff" preserveAspectRatio="xMidYMid meet" height="707" width="2000" xmlns="http://www.w3.org/2000/svg" xmlns:xlink="http://www.w3.org/1999/xlink"><g id="tight-bounds" transform="matrix(1,0,0,1,0.2399718950255476,-0.17555343295921944)"><svg viewBox="0 0 395.5199999999999 140.35110686591844" height="140.35110686591844" width="395.5199999999999"><g><svg viewBox="0 0 395.5199999999999 140.35110686591844" height="140.35110686591844" width="395.5199999999999"><g><svg viewBox="0 0 395.5199999999999 48.721925445425775" height="48.721925445425775" width="395.5199999999999"><g id="textblocktransform"><svg viewBox="0 0 395.5199999999999 48.721925445425775" height="48.721925445425775" width="395.5199999999999" id="textblock"><g><svg viewBox="0 0 395.5199999999999 48.721925445425775" height="48.721925445425775" width="395.5199999999999"><g transform="matrix(1,0,0,1,0,0)"><svg width="395.5199999999999" viewBox="1 -29.6 383.9269454376162 47.3" height="48.721925445425775" data-palette-color="#8abe53"><g transform="matrix(1,0,0,1,0,0)"><g><svg width="14.16252543761621" viewBox="2.52 -36.86 95.13000000000001 37.36" height="5.561394834032197" data-palette-color="#8abe53" id="scriptelement" x="367.8312627188081" y="-22.3662774170161"><path d="M35.25-23.63L35.25-23.63 27.47-23.63Q27.25-25.14 26.6-26.32 25.94-27.5 24.91-28.34 23.88-29.17 22.54-29.62 21.2-30.06 19.64-30.06L19.64-30.06Q16.81-30.06 14.72-28.67 12.62-27.27 11.47-24.62 10.32-21.96 10.32-18.18L10.32-18.18Q10.32-14.29 11.48-11.65 12.64-9 14.74-7.65 16.83-6.3 19.58-6.3L19.58-6.3Q21.13-6.3 22.45-6.71 23.77-7.12 24.8-7.91 25.83-8.7 26.52-9.84 27.2-10.97 27.47-12.43L27.47-12.43 35.25-12.39Q34.94-9.89 33.74-7.57 32.55-5.26 30.53-3.44 28.52-1.62 25.74-0.56 22.96 0.5 19.46 0.5L19.46 0.5Q14.6 0.5 10.77-1.7 6.94-3.91 4.73-8.08 2.52-12.25 2.52-18.18L2.52-18.18Q2.52-24.13 4.76-28.3 7-32.48 10.83-34.67 14.67-36.86 19.46-36.86L19.46-36.86Q22.62-36.86 25.33-35.97 28.04-35.09 30.13-33.39 32.23-31.69 33.55-29.24 34.87-26.79 35.25-23.63ZM48.45 0L40.76 0 40.76-36.36 55.11-36.36Q59.23-36.36 62.15-34.9 65.07-33.43 66.61-30.76 68.14-28.09 68.14-24.49L68.14-24.49Q68.14-20.86 66.58-18.26 65.02-15.66 62.06-14.28 59.11-12.89 54.92-12.89L54.92-12.89 45.31-12.89 45.31-19.07 53.67-19.07Q55.87-19.07 57.33-19.67 58.79-20.28 59.51-21.48 60.22-22.69 60.22-24.49L60.22-24.49Q60.22-26.3 59.51-27.54 58.79-28.78 57.32-29.43 55.86-30.08 53.64-30.08L53.64-30.08 48.45-30.08 48.45 0ZM52.11-16.55L60.4-16.55 69.44 0 60.95 0 52.11-16.55ZM81.26 0L73.57 0 73.57-36.36 97.65-36.36 97.65-30.02 81.26-30.02 81.26-21.36 96.05-21.36 96.05-15.02 81.26-15.02 81.26 0Z" opacity="1" transform="matrix(1,0,0,1,0,0)" fill="#8abe53" class="undefined-123" data-fill-palette-color="primary" id="yy-123"></path></svg></g></g><path d="M364.898-19.586C364.898-25.116 369.382-29.6 374.913-29.6 380.443-29.6 384.927-25.116 384.927-19.586 384.927-14.055 380.443-9.571 374.913-9.571 369.382-9.571 364.898-14.055 364.898-19.586ZM374.913-9.971C380.222-9.971 384.527-14.276 384.527-19.586 384.527-24.895 380.222-29.2 374.913-29.2 369.603-29.2 365.298-24.895 365.298-19.586 365.298-14.276 369.603-9.971 374.913-9.971Z" fill="#8abe53" id="scriptcircle" data-fill-palette-color="primary"></path><path d="M27.9-25.2L27.9-25.2Q27.9-28 24.95-28L24.95-28Q22.4-28 18.32-25.6 14.25-23.2 9.95-18.28 5.65-13.35 3.95-7.95L3.95-7.95Q3.25-5.8 3.25-3.98 3.25-2.15 4.3-0.8L4.3-0.8Q6.15 1.6 10.35 1.65L10.35 1.65Q10.65 1.65 10.9 1.65L10.9 1.65Q15.55 1.65 20.95-0.73 26.35-3.1 29.6-7.7L29.6-7.7Q29.85-8.05 30.13-7.85 30.4-7.65 30.4-7.5 30.4-7.35 30.3-7.25L30.3-7.25Q26.6-2.2 21.2 0.35 15.8 2.9 10.75 2.9L10.75 2.9Q5.45 2.9 2.75-0.1L2.75-0.1Q1-2.05 1-5.2L1-5.2Q1-10.5 5-16.6L5-16.6Q10.45-24.9 18.2-28.1L18.2-28.1Q21.2-29.3 23.95-29.3L23.95-29.3Q27.35-29.3 28.8-27.7L28.8-27.7Q29.75-26.6 29.75-25.15L29.75-25.15Q29.75-22.4 26.85-19.5 23.95-16.6 20.43-14.88 16.9-13.15 14.3-12.9L14.3-12.9Q13.25-12.8 13.3-13.45L13.3-13.45Q13.35-14.35 14.55-14.45L14.55-14.45Q18.55-14.8 21.9-16.88 25.25-18.95 27.05-22.4L27.05-22.4Q27.9-23.75 27.9-25.2ZM45.9-29.25L45.9-29.25Q46.8-29.6 47.45-29.6L47.45-29.6Q49.65-29.6 50.35-28.4L50.35-28.4Q50.75-27.8 50.75-27.35L50.75-27.35Q50.75-23.95 45.05-18.8L45.05-18.8Q40-14.35 35.75-11.15L35.75-11.15Q34.35-8 32.85-3.4L32.85-3.4Q34.65-5.6 37.4-8.5L37.4-8.5Q42.95-14.25 45.15-14.25L45.15-14.25Q46.25-14.25 46.3-13.15L46.3-13.15Q46.4-12 45.82-10.95 45.25-9.9 44.75-9L44.75-9Q42.4-5.1 42.4-2.05L42.4-2.05Q42.4-1.05 42.8-0.6L42.8-0.6Q43.5 0.2 44.8-0.5 46.1-1.2 48.42-3.3 50.75-5.4 52.2-7.4L52.2-7.4Q52.45-7.65 52.67-7.53 52.9-7.4 52.9-7.28 52.9-7.15 52.8-7L52.8-7Q52.05-5.65 50.1-3.58 48.15-1.5 46.95-0.6L46.95-0.6Q44.65 1.15 42.55 1.15L42.55 1.15Q40.65 1.15 40-0.75L40-0.75Q39.85-1.2 39.85-1.83 39.85-2.45 39.95-3.15L39.95-3.15Q40.2-5.25 42.6-9.7L42.6-9.7Q43.1-10.6 43.1-10.98 43.1-11.35 42.7-11.35L42.7-11.35Q41.9-11.35 39.6-9.35L39.6-9.35Q38.05-7.9 35.02-3.88 32 0.15 31.6 0.4L31.6 0.4Q29.8 1.3 29.37 1.3 28.95 1.3 28.9 1.18 28.85 1.05 28.95 0.85 29.05 0.65 29.75-1.35L29.75-1.35Q32.1-8 32.95-10.15L32.95-10.15Q31.3-8.05 28.85-5.4L28.85-5.4Q28.45-5 28.45-5.58 28.45-6.15 28.9-6.75 29.35-7.35 30.77-9.08 32.2-10.8 32.8-11.65L32.8-11.65Q32.35-11.9 32.32-12.35 32.3-12.8 32.62-12.98 32.95-13.15 33.7-12.85L33.7-12.85Q34.2-13.55 34.6-14.4L34.6-14.4Q40.55-27.2 45.9-29.25ZM48.7-25.5L48.7-25.5Q49.35-26.7 49.35-27.53 49.35-28.35 48.62-28.35 47.9-28.35 46.7-27.45L46.7-27.45Q41.2-23.25 36.75-13.4L36.75-13.4Q40-15.5 43.55-19 47.1-22.5 48.7-25.5ZM61.9-5.5L61.9-5.5Q62.8-7.35 62.8-8.35 62.8-9.35 62.57-9.93 62.34-10.5 62.77-10.9 63.2-11.3 63.84-11.2L63.84-11.2Q64.84-10.95 64.84-8.95 64.84-6.95 62.5-3.7L62.5-3.7Q62.55-2.35 63.9-2.35 65.25-2.35 68-5.25L68-5.25Q69.3-6.75 69.62-7.2 69.95-7.65 70.2-7.53 70.45-7.4 70.45-7.3L70.45-7.3Q70.45-6.8 68.65-4.7L68.65-4.7Q65.8-1.2 63.59-1.2L63.59-1.2Q62.15-1.2 61.55-2.45L61.55-2.45Q60.55-1.4 59.59-0.5L59.59-0.5Q57.65 1.15 55.25 1.15L55.25 1.15Q53.9 1.15 53 0.5L53 0.5Q51.25-0.55 51.25-3.25L51.25-3.25Q51.25-6.2 53.25-9.25L53.25-9.25Q54.4-11.05 55.95-12.4L55.95-12.4Q58.4-14.55 60.59-14.55L60.59-14.55Q61.15-14.55 61.65-14.4L61.65-14.4Q63.15-13.9 63.15-12.5L63.15-12.5Q63.15-11.35 62.55-11.35L62.55-11.35Q62.3-11.45 62.3-12.1L62.3-12.1Q62.3-13 61.3-13L61.3-13Q59.55-13 56.8-9.8 54.05-6.6 53.5-3.35L53.5-3.35Q53.4-2.8 53.4-2.13 53.4-1.45 53.84-0.58 54.3 0.3 55.52 0.3 56.75 0.3 58.2-0.8 59.65-1.9 60.8-3.6L60.8-3.6 60.65-3.9Q60.45-4.7 60.84-5.2 61.25-5.7 61.9-5.5ZM81.64-11L81.64-11 81.89-12Q81.89-13 81.14-13L81.14-13Q79.09-13 75.54-9.8 71.99-6.6 71.04-3.35L71.04-3.35Q70.79-2.5 70.79-1.83 70.79-1.15 71.09-0.7L71.09-0.7Q71.69 0.2 72.94 0.2 74.19 0.2 75.64-0.15L75.64-0.15Q78.84-1.05 80.97-2.73 83.09-4.4 85.44-7.4L85.44-7.4Q85.64-7.65 85.92-7.55 86.19-7.45 86.19-7.28 86.19-7.1 86.04-6.75L86.04-6.75Q83.64-3.5 81.02-1.48 78.39 0.55 74.94 1.15L74.94 1.15Q73.94 1.3 73.09 1.3L73.09 1.3Q70.64 1.3 69.37 0.1 68.09-1.1 68.09-2.55 68.09-4 68.79-5.7L68.79-5.7Q70.04-8.55 74.14-11.55 78.24-14.55 80.64-14.55L80.64-14.55Q81.24-14.55 81.79-14.4L81.79-14.4Q83.19-13.9 83.19-12.8L83.19-12.8Q83.19-12.05 82.64-11.1 82.09-10.15 81.82-10.43 81.54-10.7 81.64-11ZM95.19-5.5L95.19-5.5Q96.09-7.35 96.09-8.35 96.09-9.35 95.87-9.93 95.64-10.5 96.06-10.9 96.49-11.3 97.14-11.2L97.14-11.2Q98.14-10.95 98.14-8.95 98.14-6.95 95.79-3.7L95.79-3.7Q95.84-2.35 97.19-2.35 98.54-2.35 101.29-5.25L101.29-5.25Q102.59-6.75 102.92-7.2 103.24-7.65 103.49-7.53 103.74-7.4 103.74-7.3L103.74-7.3Q103.74-6.8 101.94-4.7L101.94-4.7Q99.09-1.2 96.89-1.2L96.89-1.2Q95.44-1.2 94.84-2.45L94.84-2.45Q93.84-1.4 92.89-0.5L92.89-0.5Q90.94 1.15 88.54 1.15L88.54 1.15Q87.19 1.15 86.29 0.5L86.29 0.5Q84.54-0.55 84.54-3.25L84.54-3.25Q84.54-6.2 86.54-9.25L86.54-9.25Q87.69-11.05 89.24-12.4L89.24-12.4Q91.69-14.55 93.89-14.55L93.89-14.55Q94.44-14.55 94.94-14.4L94.94-14.4Q96.44-13.9 96.44-12.5L96.44-12.5Q96.44-11.35 95.84-11.35L95.84-11.35Q95.59-11.45 95.59-12.1L95.59-12.1Q95.59-13 94.59-13L94.59-13Q92.84-13 90.09-9.8 87.34-6.6 86.79-3.35L86.79-3.35Q86.69-2.8 86.69-2.13 86.69-1.45 87.14-0.58 87.59 0.3 88.81 0.3 90.04 0.3 91.49-0.8 92.94-1.9 94.09-3.6L94.09-3.6 93.94-3.9Q93.74-4.7 94.14-5.2 94.54-5.7 95.19-5.5ZM104.39-22.23Q104.44-22.5 104.79-22.75 105.14-23 106.09-23 107.04-23 107.04-22.15L107.04-22.15Q107.04-21.55 106.79-20.75 106.54-19.95 106.44-19.58 106.34-19.2 105.86-17.68 105.39-16.15 105.19-15.4L105.19-15.4Q104.99-14.55 104.61-14.55 104.24-14.55 104.24-15.15L104.24-15.15 104.44-20.15Q104.44-20.5 104.39-21.23 104.34-21.95 104.39-22.23ZM110.14 0.5L110.14 0.5Q109.48 1.25 109.86 1.7 110.23 2.15 110.71 2.15 111.19 2.15 111.69 2L111.69 2Q113.84 1.35 115.86-0.58 117.89-2.5 117.89-4.5L117.89-4.5Q117.89-5.6 115.44-6.9L115.44-6.9Q114.29-7.5 114.14-7.6L114.14-7.6Q112.79-8.5 112.44-9.4L112.44-9.4Q111.73-8.2 110.19-5.95L110.19-5.95Q109.84-5.55 109.54-5.78 109.23-6 109.48-6.4L109.48-6.4Q111.54-9.2 112.19-11.1L112.19-11.1Q112.54-13.85 116.19-16.05 119.84-18.25 122.84-18.25L122.84-18.25Q124.74-18.25 125.51-17.57 126.29-16.9 126.29-16.25 126.29-15.6 125.91-14.75 125.54-13.9 124.39-13.15L124.39-13.15Q124.09-12.95 123.89-13.25L123.89-13.25Q123.79-13.55 124.31-14.08 124.84-14.6 124.99-15.5 125.14-16.4 124.19-16.6L124.19-16.6Q124.04-16.6 123.89-16.6L123.89-16.6Q121.94-16.6 119.01-15.15 116.09-13.7 114.44-11.4L114.44-11.4Q113.79-10.55 113.79-9.68 113.79-8.8 114.98-8.1L114.98-8.1Q115.48-7.8 116.69-7.15 117.89-6.5 118.39-6.2 118.89-5.9 119.59-5.25 120.29-4.6 120.34-4.05L120.34-4.05Q120.59-2.55 118.94-0.75L118.94-0.75Q116.59 1.85 111.94 2.9L111.94 2.9Q110.89 3.15 109.81 3.15 108.73 3.15 108.34 2.35L108.34 2.35Q108.19 2.15 108.19 1.73 108.19 1.3 108.98 0.35L108.98 0.35Q109.73-0.4 111.39-1.1L111.39-1.1Q111.54-1.15 111.64-1.05 111.73-0.95 111.69-0.8 111.64-0.65 111.16-0.45 110.69-0.25 110.14 0.5ZM135.08-18.65L135.08-18.65Q134.98-19.3 134.98-19.45L134.98-19.45Q135.68-23.2 142.33-26.6L142.33-26.6Q147.58-29.05 154.73-29.05L154.73-29.05Q159.13-29.05 163.43-27.85L163.43-27.85Q166.33-26.85 167.83-25 169.33-23.15 169.33-21.25L169.33-21.25Q169.33-18.35 167.03-16.13 164.73-13.9 161.88-12.7L161.88-12.7Q155.53-9.95 147.38-9.65L147.38-9.65Q148.03-8.85 149.48-7.03 150.93-5.2 151.68-4.3 152.43-3.4 153.85-1.78 155.28-0.15 156.25 0.73 157.23 1.6 158.73 2.83 160.23 4.05 161.58 4.75L161.58 4.75Q166.28 7.25 169.78 7.25L169.78 7.25 171.48 7.1Q173.18 6.8 174.18 5.73 175.18 4.65 175.18 3.35L175.18 3.35Q175.18 2.85 175.06 2.27 174.93 1.7 175.38 1.7L175.38 1.7Q175.88 1.75 176.06 2.43 176.23 3.1 176.23 4.1 176.23 5.1 175.73 6.4L175.73 6.4Q175.18 8.2 172.68 9.15L172.68 9.15Q171.08 9.75 169.68 9.75L169.68 9.75Q165.48 9.75 161.18 7.4L161.18 7.4Q158.33 5.8 156.06 3.43 153.78 1.05 152.25-0.85 150.73-2.75 148.85-5.58 146.98-8.4 146.23-9.35L146.23-9.35 145.88-9.4Q142.08-2.4 142.08-0.95L142.08-0.95Q142.08-0.2 142.73-0.2 143.38-0.2 144.48-1.58 145.58-2.95 145.98-2.9L145.98-2.9Q146.28-2.6 145.33-1.6L145.33-1.6Q145.23-1.5 144.98-1.07 144.73-0.65 144.56-0.4 144.38-0.15 144.08 0.25 143.78 0.65 143.53 0.9 143.28 1.15 142.98 1.4L142.98 1.4Q142.38 1.9 141.93 1.9 141.48 1.9 140.68 1.73 139.88 1.55 139.88 1.05L139.88 1.05Q139.88-1.2 143.98-9.4L143.98-9.4Q142.33-9.55 142.33-10.6L142.33-10.6Q142.33-10.8 142.38-11.1L142.38-11.1Q142.73-11.95 143.66-11.95 144.58-11.95 145.13-11.5L145.13-11.5Q145.53-12.3 146.08-13.3L146.08-13.3Q148.03-16.8 148.03-17.75L148.03-17.75Q148.03-18 147.98-18.25L147.98-18.25Q148.18-19.65 150.41-21.93 152.63-24.2 154.43-24.2L154.43-24.2Q155.03-24.2 156.03-23.75 157.03-23.3 157.23-22.5L157.23-22.5Q157.28-22.15 157.25-22.08 157.23-22 156.98-22.1 156.73-22.2 156.68-22.2L156.68-22.2Q153.18-22.2 146.68-10.85L146.68-10.85Q147.28-10.6 147.85-10.6 148.43-10.6 148.83-10.65L148.83-10.65Q153.93-11.2 158.81-13.05 163.68-14.9 166.38-17.7L166.38-17.7Q168.13-19.4 168.13-21.3L168.13-21.3Q168.13-26.9 156.68-26.9L156.68-26.9Q150.13-26.9 144.18-24.9L144.18-24.9Q141.08-23.8 138.91-21.95 136.73-20.1 136.33-17.75L136.33-17.75Q136.28-17.5 136.28-17.1 136.28-16.7 136.6-16.13 136.93-15.55 137.38-15.25 137.83-14.95 138.66-14.55 139.48-14.15 139.75-13.95 140.03-13.75 139.88-13.53 139.73-13.3 139.23-13.4L139.23-13.4Q137.68-13.65 136.33-14.95 134.98-16.25 134.98-17.75L134.98-17.75Q134.98-18.2 135.08-18.65ZM173.88-14.55L173.88-14.55Q176.58-14.55 176.58-11.95L176.58-11.95Q176.58-10.6 175.83-9.75L175.83-9.75Q174.58-7.9 171.78-6.53 168.98-5.15 167.03-5L167.03-5Q166.33-4.95 166.28-5.4L166.28-5.4Q166.23-5.6 166.4-5.65 166.58-5.7 166.68-5.7L166.68-5.7Q167.83-5.8 169.63-6.8L169.63-6.8Q172.98-8.6 174.53-10.5L174.53-10.5Q175.18-11.4 175.18-12.23 175.18-13.05 174.38-13.05L174.38-13.05Q173.73-13.05 172.63-12.5L172.63-12.5Q170.28-11.4 167.68-8.68 165.08-5.95 164.28-3.35L164.28-3.35Q164.03-2.55 164.03-1.78 164.03-1 164.68-0.3 165.33 0.4 166.68 0.4L166.68 0.4Q168.18 0.4 170.13-0.4L170.13-0.4Q175.78-2.7 178.83-7.35L178.83-7.35Q179.13-7.75 179.38-7.5L179.38-7.5Q179.58-7.4 179.58-7.25 179.58-7.1 179.43-6.9L179.43-6.9Q177.93-4.4 175.63-2.45L175.63-2.45Q171.18 1.35 166.98 1.35L166.98 1.35Q163.38 1.35 161.93-0.8L161.93-0.8Q161.38-1.65 161.38-2.85 161.38-4.05 162.03-5.7L162.03-5.7Q163.28-8.55 167.38-11.55 171.48-14.55 173.88-14.55ZM190.82-11L190.82-11 191.07-12Q191.07-13 190.32-13L190.32-13Q188.27-13 184.72-9.8 181.17-6.6 180.22-3.35L180.22-3.35Q179.97-2.5 179.97-1.83 179.97-1.15 180.27-0.7L180.27-0.7Q180.87 0.2 182.12 0.2 183.37 0.2 184.82-0.15L184.82-0.15Q188.02-1.05 190.15-2.73 192.27-4.4 194.62-7.4L194.62-7.4Q194.82-7.65 195.1-7.55 195.37-7.45 195.37-7.28 195.37-7.1 195.22-6.75L195.22-6.75Q192.82-3.5 190.2-1.48 187.57 0.55 184.12 1.15L184.12 1.15Q183.12 1.3 182.27 1.3L182.27 1.3Q179.82 1.3 178.55 0.1 177.27-1.1 177.27-2.55 177.27-4 177.97-5.7L177.97-5.7Q179.22-8.55 183.32-11.55 187.42-14.55 189.82-14.55L189.82-14.55Q190.42-14.55 190.97-14.4L190.97-14.4Q192.37-13.9 192.37-12.8L192.37-12.8Q192.37-12.05 191.82-11.1 191.27-10.15 191-10.43 190.72-10.7 190.82-11ZM198.82-13.85L198.82-13.85Q200.07-13.85 200.32-13.05L200.32-13.05Q200.42-12.6 200.2-12.18 199.97-11.75 199.87-11.5 199.77-11.25 199.72-11.1L199.72-11.1Q199.47-10.6 199.22-10.15L199.22-10.15Q196.37-4.45 196.22-2.9L196.22-2.9Q196.17-2.45 196.17-1.75 196.17-1.05 196.57-0.6L196.57-0.6Q197.27 0.2 198.57-0.5 199.87-1.2 202.2-3.3 204.52-5.4 205.97-7.4L205.97-7.4Q206.17-7.65 206.42-7.53 206.67-7.4 206.67-7.28 206.67-7.15 206.57-7L206.57-7Q205.82-5.65 203.87-3.55L203.87-3.55Q200.67-0.1 198.52 0.7L198.52 0.7Q197.27 1.15 196.42 1.15L196.42 1.15Q194.42 1.15 193.77-0.75L193.77-0.75Q193.67-1.1 193.67-1.6L193.67-1.6Q193.67-3.35 195.27-6.9L195.27-6.9Q195.02-6.35 193.32-4.4L193.32-4.4Q192.87-3.9 192.62-4.4L192.62-4.4Q192.57-4.5 192.57-4.67 192.57-4.85 192.77-5.1L192.77-5.1Q195.22-8.15 196.62-10.25L196.62-10.25Q196.52-10.5 196.72-10.9L196.72-10.9Q197.72-13.7 198.47-13.85L198.47-13.85Q198.62-13.85 198.82-13.85ZM202.77-20.5L202.77-20.5 202.37-18.9Q202.37-18.45 201.72-17.45 201.07-16.45 200.72-16.45L200.72-16.45Q198.57-16.45 198.57-17.5L198.57-17.5Q198.57-17.7 200.72-19.35L200.72-19.35 201.57-20Q202.37-20.7 202.57-20.7 202.77-20.7 202.77-20.5ZM220.97-10.4L220.97-10.4Q220.97-8.2 219.17-5.93 217.37-3.65 214.92-1.95L214.92-1.95Q212.67-0.5 210.34 0.3 208.02 1.1 206.84 1.1 205.67 1.1 204.92 0.85L204.92 0.85Q203.82 3.4 201.87 9.4L201.87 9.4Q201.67 10.05 201.64 11.03 201.62 12 201.04 13.68 200.47 15.35 199.92 16.35L199.92 16.35Q199.67 16.95 198.47 17.32 197.27 17.7 196.77 17.7 196.27 17.7 196.27 17.2L196.27 17.2Q196.27 17 196.42 16.65L196.42 16.65Q198.72 11.95 202.22 2.83 205.72-6.3 206.07-7.3 206.42-8.3 207.07-10.2L207.07-10.2Q208.17-13.4 208.27-15L208.27-15Q208.27-15.6 209.87-15.6 211.47-15.6 211.47-14.45L211.47-14.45Q211.47-13.6 210.5-12.08 209.52-10.55 207.62-6L207.62-6Q210.52-10.4 212.32-11.75L212.32-11.75Q214.72-13.7 216.97-13.7L216.97-13.7Q217.87-13.7 218.77-13.4L218.77-13.4Q220.72-12.7 220.92-11.15L220.92-11.15Q220.97-10.75 220.97-10.4ZM218.52-11.1L218.52-11.1Q218.52-12.85 217.17-12.85L217.17-12.85Q216.37-12.85 214.57-11.9 212.77-10.95 210.97-9.05 209.17-7.15 208.19-5.48 207.22-3.8 206.37-2.02 205.52-0.25 205.37 0.05L205.37 0.05Q208.42 0.05 212.07-2.6 215.72-5.25 217.52-8.35L217.52-8.35Q218.52-9.9 218.52-11.1ZM235.37-14.55L235.37-14.55Q238.07-14.55 238.07-11.95L238.07-11.95Q238.07-10.6 237.32-9.75L237.32-9.75Q236.07-7.9 233.27-6.53 230.47-5.15 228.52-5L228.52-5Q227.82-4.95 227.77-5.4L227.77-5.4Q227.72-5.6 227.89-5.65 228.07-5.7 228.17-5.7L228.17-5.7Q229.32-5.8 231.12-6.8L231.12-6.8Q234.47-8.6 236.02-10.5L236.02-10.5Q236.67-11.4 236.67-12.23 236.67-13.05 235.87-13.05L235.87-13.05Q235.22-13.05 234.12-12.5L234.12-12.5Q231.77-11.4 229.17-8.68 226.57-5.95 225.77-3.35L225.77-3.35Q225.52-2.55 225.52-1.78 225.52-1 226.17-0.3 226.82 0.4 228.17 0.4L228.17 0.4Q229.67 0.4 231.62-0.4L231.62-0.4Q237.27-2.7 240.32-7.35L240.32-7.35Q240.62-7.75 240.87-7.5L240.87-7.5Q241.07-7.4 241.07-7.25 241.07-7.1 240.92-6.9L240.92-6.9Q239.42-4.4 237.12-2.45L237.12-2.45Q232.67 1.35 228.47 1.35L228.47 1.35Q224.87 1.35 223.42-0.8L223.42-0.8Q222.87-1.65 222.87-2.85 222.87-4.05 223.52-5.7L223.52-5.7Q224.77-8.55 228.87-11.55 232.97-14.55 235.37-14.55ZM262.26-2.9L262.26-2.9Q262.41-2.9 262.41-2.6 262.41-2.3 261.71-1.6L261.71-1.6 261.21-0.85Q259.86 1.2 259.24 1.55 258.61 1.9 258.24 1.9 257.86 1.9 257.09 1.73 256.31 1.55 256.29 1.35 256.26 1.15 256.26 0.95L256.26 0.95Q256.26-1.5 260.71-10.1L260.71-10.1Q259.51-9.95 258.89-9.95 258.26-9.95 257.84-10.33 257.41-10.7 257.41-11.3 257.41-11.9 258.46-12.4 259.51-12.9 260.09-12.9 260.66-12.9 261.06-12.43 261.46-11.95 261.56-11.95L261.56-11.95 261.71-11.95Q262.76-13.85 263.61-15.45 264.46-17.05 264.46-17.53 264.46-18 264.31-18.25L264.31-18.25Q264.61-19.7 266.79-21.95 268.96-24.2 270.76-24.2L270.76-24.2Q271.56-24.2 272.71-23.58 273.86-22.95 273.71-21.95L273.71-21.95Q273.36-22.2 273.06-22.2L273.06-22.2Q269.66-22.2 263.71-12L263.71-12Q265.36-12.15 267.16-12.45L267.16-12.45Q273.16-13.2 273.96-13.2 274.76-13.2 274.99-13.18 275.21-13.15 275.39-13.05 275.56-12.95 275.61-12.85L275.61-12.85Q275.66-12.55 274.46-12.15L274.46-12.15Q271.56-11.2 262.71-10.25L262.71-10.25Q258.51-2.65 258.51-0.9L258.51-0.9Q258.51-0.05 259.24-0.28 259.96-0.5 260.51-1.2L260.51-1.2Q261.81-2.9 262.26-2.9ZM281.81-26.7L281.81-26.7Q283.26-28.3 284.56-28.3L284.56-28.3Q285.16-28.3 285.51-28 285.86-27.7 285.86-27.4 285.86-27.1 285.56-26.8 285.26-26.5 284.41-25.88 283.56-25.25 283.06-24.75L283.06-24.75Q280.66-22.4 280.66-20.7L280.66-20.7Q280.66-19.95 280.99-19.45 281.31-18.95 280.91-18.82 280.51-18.7 280.16-19.15L280.16-19.15Q279.71-19.45 279.71-21.15L279.71-21.15Q279.71-23.4 280.51-24.9L280.51-24.9Q280.61-25.05 280.84-25.43 281.06-25.8 281.21-25.95L281.21-25.95Q280.86-25.95 279.34-25.95 277.81-25.95 273.29-26.35 268.76-26.75 266.46-26.75 264.16-26.75 262.91-26.45L262.91-26.45Q258.16-25.8 254.74-23.83 251.31-21.85 250.66-18.85L250.66-18.85Q250.56-18.55 250.56-18.13 250.56-17.7 250.84-17.1 251.11-16.5 251.51-16.15 251.91-15.8 252.74-15.3 253.56-14.8 253.84-14.58 254.11-14.35 253.94-14.2 253.76-14.05 253.59-14.05 253.41-14.05 253.21-14.1L253.21-14.1Q251.51-14.6 250.34-15.98 249.16-17.35 249.16-18.28 249.16-19.2 249.41-19.85L249.41-19.85Q249.41-20.4 249.46-20.65L249.46-20.65Q250.21-24.2 254.01-26.15L254.01-26.15Q258.56-28.5 265.11-28.5L265.11-28.5Q268.71-28.5 273.96-27.65 279.21-26.8 281.81-26.7ZM282.01-13.85L282.01-13.85Q283.26-13.85 283.51-13.05L283.51-13.05Q283.61-12.6 283.38-12.18 283.16-11.75 283.06-11.5 282.96-11.25 282.91-11.1L282.91-11.1Q282.66-10.6 282.41-10.15L282.41-10.15Q279.56-4.45 279.41-2.9L279.41-2.9Q279.36-2.45 279.36-1.75 279.36-1.05 279.76-0.6L279.76-0.6Q280.46 0.2 281.76-0.5 283.06-1.2 285.38-3.3 287.71-5.4 289.16-7.4L289.16-7.4Q289.36-7.65 289.61-7.53 289.86-7.4 289.86-7.28 289.86-7.15 289.76-7L289.76-7Q289.01-5.65 287.06-3.55L287.06-3.55Q283.86-0.1 281.71 0.7L281.71 0.7Q280.46 1.15 279.61 1.15L279.61 1.15Q277.61 1.15 276.96-0.75L276.96-0.75Q276.86-1.1 276.86-1.6L276.86-1.6Q276.86-3.35 278.46-6.9L278.46-6.9Q278.21-6.35 276.51-4.4L276.51-4.4Q276.06-3.9 275.81-4.4L275.81-4.4Q275.76-4.5 275.76-4.67 275.76-4.85 275.96-5.1L275.96-5.1Q278.41-8.15 279.81-10.25L279.81-10.25Q279.71-10.5 279.91-10.9L279.91-10.9Q280.91-13.7 281.66-13.85L281.66-13.85Q281.81-13.85 282.01-13.85ZM285.96-20.5L285.96-20.5 285.56-18.9Q285.56-18.45 284.91-17.45 284.26-16.45 283.91-16.45L283.91-16.45Q281.76-16.45 281.76-17.5L281.76-17.5Q281.76-17.7 283.91-19.35L283.91-19.35 284.76-20Q285.56-20.7 285.76-20.7 285.96-20.7 285.96-20.5ZM302.41-14.2L302.41-14.2Q303.56-14.2 303.56-12.98 303.56-11.75 302.41-9.6 301.26-7.45 300.71-6.1L300.71-6.1Q299.76-3.8 299.76-2.43 299.76-1.05 300.16-0.6L300.16-0.6Q300.91 0.2 302.21-0.53 303.51-1.25 305.83-3.33 308.16-5.4 309.56-7.4L309.56-7.4Q309.76-7.65 310.03-7.53 310.31-7.4 310.31-7.28 310.31-7.15 310.21-7L310.21-7Q309.46-5.65 307.51-3.55 305.56-1.45 303.76-0.18 301.96 1.1 300.21 1.1L300.21 1.1Q298.51 1.05 297.81 0.33 297.11-0.4 297.11-1.5 297.11-2.6 297.31-3.63 297.51-4.65 298.06-6L298.06-6Q298.96-8.15 299.63-9.35 300.31-10.55 300.31-10.93 300.31-11.3 299.91-11.3L299.91-11.3Q299.11-11.3 296.86-9.35L296.86-9.35Q295.31-7.9 292.28-3.88 289.26 0.15 288.86 0.4L288.86 0.4Q287.06 1.3 286.61 1.3 286.16 1.3 286.16 1.15 286.16 1 286.26 0.73 286.36 0.45 287.23-2 288.11-4.45 289.13-7.38 290.16-10.3 290.38-10.9 290.61-11.5 290.68-11.93 290.76-12.35 290.86-12.65 290.96-12.95 291.23-13.33 291.51-13.7 291.96-13.73 292.41-13.75 293.11-13.63 293.81-13.5 293.81-13L293.81-13Q293.81-12.65 293.26-11.48 292.71-10.3 290.11-3.4L290.11-3.4Q291.91-5.6 294.66-8.47 297.41-11.35 299.31-12.85L299.31-12.85Q301.21-14.2 302.41-14.2ZM311.18-9.13Q313.4-11.1 315.81-12.5 318.2-13.9 319.6-14.25 321-14.6 322.35-14.6 323.7-14.6 324.9-13.7L324.9-13.7Q331.75-29.6 338-29.6L338-29.6Q340.1-29.6 340.85-28.4L340.85-28.4Q341.2-27.8 341.2-27.35L341.2-27.35Q341.2-26.1 340.13-24.18 339.06-22.25 336.81-19.95 334.56-17.65 330.35-14.28 326.15-10.9 325.7-10.5L325.7-10.5Q324.1-6.8 323.2-3.35 322.31 0.1 322.31 1.8 322.31 3.5 322.9 4.5L322.9 4.5Q323.2 5.15 323.81 5.28 324.4 5.4 324.83 5.13 325.25 4.85 325.48 4.65 325.7 4.45 326.03 4.28 326.35 4.1 326.5 4.2 326.65 4.3 326.45 4.75L326.45 4.75Q326.06 5.25 325.7 5.6L325.7 5.6Q324.9 6.15 323.83 6.15 322.75 6.15 322.4 6.1L322.4 6.1Q320 5.7 320 2.6L320 2.6Q320-0.4 320.81-2.95L320.81-2.95Q321.9-6.45 322.81-8.75L322.81-8.75Q314.81 0.55 311.45 0.55L311.45 0.55Q310.65 0.55 309.73 0.08 308.81-0.4 308.15-1.28 307.5-2.15 307.5-3.15 307.5-4.15 307.95-5.05L307.95-5.05Q308.95-7.15 311.18-9.13ZM323.81-11.2L324.5-12.9Q323.9-13.2 322.4-13.2 320.9-13.2 318.53-11.98 316.15-10.75 314.06-8.9L314.06-8.9Q312.31-7.25 310.98-5.18 309.65-3.1 309.65-2.15L309.65-2.15Q309.65-0.3 310.7-0.3 311.75-0.3 313.9-2L313.9-2Q319.45-6.55 323.81-11.2L323.81-11.2ZM339.15-25.5L339.15-25.5Q339.81-26.7 339.81-27.53 339.81-28.35 339.08-28.35 338.35-28.35 337.15-27.45L337.15-27.45Q331.65-23.25 327.2-13.4L327.2-13.4Q330.45-15.5 334-19 337.56-22.5 339.15-25.5ZM339.25-14.55L339.25-14.55Q341.95-14.55 341.95-11.95L341.95-11.95Q341.95-10.6 341.2-9.75L341.2-9.75Q339.95-7.9 337.15-6.53 334.35-5.15 332.4-5L332.4-5Q331.7-4.95 331.65-5.4L331.65-5.4Q331.6-5.6 331.78-5.65 331.95-5.7 332.05-5.7L332.05-5.7Q333.2-5.8 335-6.8L335-6.8Q338.35-8.6 339.9-10.5L339.9-10.5Q340.55-11.4 340.55-12.23 340.55-13.05 339.75-13.05L339.75-13.05Q339.1-13.05 338-12.5L338-12.5Q335.65-11.4 333.05-8.68 330.45-5.95 329.65-3.35L329.65-3.35Q329.4-2.55 329.4-1.78 329.4-1 330.05-0.3 330.7 0.4 332.05 0.4L332.05 0.4Q333.55 0.4 335.5-0.4L335.5-0.4Q341.15-2.7 344.2-7.35L344.2-7.35Q344.5-7.75 344.75-7.5L344.75-7.5Q344.95-7.4 344.95-7.25 344.95-7.1 344.8-6.9L344.8-6.9Q343.3-4.4 341-2.45L341-2.45Q336.55 1.35 332.35 1.35L332.35 1.35Q328.75 1.35 327.3-0.8L327.3-0.8Q326.75-1.65 326.75-2.85 326.75-4.05 327.4-5.7L327.4-5.7Q328.65-8.55 332.75-11.55 336.85-14.55 339.25-14.55ZM350.25 1.25L350.25 1.25Q347.7 1.25 347.7-1.83 347.7-4.9 352.1-9.4L352.1-9.4Q352.45-9.75 352.6-9.95L352.6-9.95 352.95-10.45Q353.65-11.4 353.6-11.65L353.6-11.65 353.45-12.1Q353.25-12.7 351.8-12.98 350.35-13.25 349.45-13.25L349.45-13.25Q344.95-6.9 344.25-6 343.55-5.1 343.3-5.25 343.05-5.4 343.05-5.6 343.05-5.8 343.35-6.2L343.35-6.2Q346.05-9.5 348-13.25L348-13.25Q347.4-13.35 347.1-13.68 346.8-14 347.05-14.78 347.3-15.55 348.57-16.85 349.85-18.15 350.8-18.6 351.75-19.05 352-19.15 352.25-19.25 352.55-19.25L352.55-19.25Q353.15-19.25 352.15-17.45L352.15-17.45 350.2-14.35Q352.45-14.2 354.05-14.2L354.05-14.2 355.8-14.25Q356.65-14.25 357.05-14.03 357.45-13.8 357.25-13.25L357.25-13.25Q356.9-12.3 355.5-10.7L355.5-10.7Q352.5-7.2 351-3.25L351-3.25Q350.65-2.3 350.65-1.6L350.65-1.6Q350.65-0.15 351.7-0.15L351.7-0.15Q352.05-0.15 353.02-0.7 354-1.25 356.3-3.33 358.6-5.4 360-7.4L360-7.4Q360.2-7.65 360.47-7.53 360.75-7.4 360.75-7.28 360.75-7.15 360.65-7L360.65-7Q359.9-5.65 357.95-3.55 356-1.45 354.15-0.15L354.15-0.15Q352.35 1.25 350.25 1.25Z" opacity="1" transform="matrix(1,0,0,1,0,0)" fill="#8abe53" class="wordmark-text-0" data-fill-palette-color="primary" id="text-0"></path></svg></g></svg></g></svg></g></svg></g><g transform="matrix(1,0,0,1,157.5480988345574,60.22400271688011)"><svg viewBox="0 0 80.4238023308851 80.12710414903833" height="80.12710414903833" width="80.4238023308851"><g><svg xmlns="http://www.w3.org/2000/svg" xmlns:xlink="http://www.w3.org/1999/xlink" version="1.1" x="8" y="0" viewBox="18.4 10.9 64 79.6" style="enable-background:new 0 0 100 100;" xml:space="preserve" height="80.12710414903833" width="64.4238023308851" class="icon-icon-0" data-fill-palette-color="accent" id="icon-0"><path d="M39.6 52.9v18.7c0 1.5 1.2 2.7 2.7 2.7h22.4c1.5 0 2.7-1.2 2.7-2.7V50.7c4.1-0.8 7-4.4 7-8.7 0-4-2.8-7.4-6.6-8.5-1.2-0.3-2.4-0.4-3.7-0.2-1.7-3.7-5.4-6.2-9.6-6.2-3.9 0-7.4 2.2-9.3 5.6-1.2-0.3-2.5-0.3-3.7-0.1-4.6 0.6-8.4 4.5-8.9 9.2C32.1 46.7 35 51.3 39.6 52.9zM34.6 42c0.4-3.8 3.5-6.9 7.2-7.4 0.4-0.1 0.8-0.1 1.2-0.1 0.8 0 1.7 0.1 2.5 0.4 0 0 0 0 0.1 0 0 0 0 0 0 0 0 0 2.7 0.6 4.2 3.1 0.2 0.3 0.5 0.5 0.9 0.5 0.2 0 0.3 0 0.5-0.1 0.5-0.3 0.6-0.9 0.4-1.4-1.3-2.1-3.1-3.2-4.3-3.7 1.5-2.6 4.3-4.2 7.3-4.2 3.6 0 6.8 2.3 8 5.7 0.2 0.5 0.7 0.8 1.2 0.6 1.2-0.3 2.4-0.3 3.5 0 3 0.8 5.1 3.5 5.2 6.6 0 0 0 0 0 0 0 3.5-2.6 6.5-6.1 6.8-0.5 0.1-0.9 0.5-0.9 1v21.7c0 0.4-0.3 0.7-0.7 0.7H42.3c-0.4 0-0.7-0.3-0.7-0.7V52.1c0-0.5-0.3-0.8-0.7-1C36.7 50.1 34.1 46.2 34.6 42z" fill="#398378" data-fill-palette-color="accent"></path><path d="M44.8 69.2c0.6 0 1-0.4 1-1V62c0-0.6-0.4-1-1-1s-1 0.4-1 1v6.2C43.8 68.8 44.3 69.2 44.8 69.2z" fill="#398378" data-fill-palette-color="accent"></path><path d="M49.2 69.2c0.6 0 1-0.4 1-1V62c0-0.6-0.4-1-1-1s-1 0.4-1 1v6.2C48.2 68.8 48.6 69.2 49.2 69.2z" fill="#398378" data-fill-palette-color="accent"></path><path d="M53.5 69.2c0.6 0 1-0.4 1-1V62c0-0.6-0.4-1-1-1s-1 0.4-1 1v6.2C52.5 68.8 53 69.2 53.5 69.2z" fill="#398378" data-fill-palette-color="accent"></path><path d="M57.9 69.2c0.6 0 1-0.4 1-1V62c0-0.6-0.4-1-1-1s-1 0.4-1 1v6.2C56.9 68.8 57.3 69.2 57.9 69.2z" fill="#398378" data-fill-palette-color="accent"></path><path d="M62.2 69.2c0.6 0 1-0.4 1-1V62c0-0.6-0.4-1-1-1s-1 0.4-1 1v6.2C61.2 68.8 61.7 69.2 62.2 69.2z" fill="#398378" data-fill-palette-color="accent"></path><path d="M82.4 89.5V11.9c0-0.6-0.4-1-1-1H19.4c-0.6 0-1 0.4-1 1v77.6c0 0.6 0.4 1 1 1h62.1C82 90.5 82.4 90 82.4 89.5zM26.1 88.5h-5.8V12.9h5.8V88.5zM80.4 88.5H28.1V12.9h52.3V88.5z" fill="#398378" data-fill-palette-color="accent"></path></svg></g></svg></g><g><rect width="157.5480988345574" height="4.393793517695556" y="60.22400271688011" x="237.9719011654425" fill="#398378" data-fill-palette-color="accent"></rect><rect width="157.5480988345574" height="4.393793517695556" y="60.22400271688011" x="0" fill="#398378" data-fill-palette-color="accent"></rect><rect width="157.5480988345574" height="4.393793517695556" y="69.01158975227122" x="237.9719011654425" fill="#398378" data-fill-palette-color="accent"></rect><rect width="157.5480988345574" height="4.393793517695556" y="69.01158975227122" x="0" fill="#398378" data-fill-palette-color="accent"></rect></g></svg></g><defs></defs></svg><rect width="395.5199999999999" height="140.35110686591844" fill="none" stroke="none" visibility="hidden"></rect></g></svg></g></svg>